<mxfile host="Electron" modified="2024-02-11T00:07:00.284Z" agent="Mozilla/5.0 (Macintosh; Intel Mac OS X 10_15_7) AppleWebKit/537.36 (KHTML, like Gecko) draw.io/22.1.18 Chrome/120.0.6099.199 Electron/28.1.2 Safari/537.36" etag="AS5SuoX5-2bd1u_eQp8j" version="22.1.18" type="device">
  <diagram name="第 1 页" id="b5mSkbhJ9TMHFWA24EFK">
    <mxGraphModel dx="1549" dy="1002" grid="0" gridSize="10" guides="1" tooltips="1" connect="1" arrows="1" fold="1" page="1" pageScale="1" pageWidth="1169" pageHeight="1654" math="0" shadow="0">
      <root>
        <mxCell id="0" />
        <mxCell id="1" parent="0" />
        <mxCell id="7cA8ZXB85LRYiuhBoMwi-22" value="" style="whiteSpace=wrap;html=1;shape=mxgraph.basic.document;fillColor=none;" vertex="1" parent="1">
          <mxGeometry x="147.5" y="618" width="230" height="270" as="geometry" />
        </mxCell>
        <mxCell id="1BIU7v5YuPMw9bHsWgs8-1" value="" style="rounded=0;whiteSpace=wrap;html=1;strokeColor=none;fillColor=none;" parent="1" vertex="1">
          <mxGeometry x="120" y="575" width="900" height="360" as="geometry" />
        </mxCell>
        <mxCell id="7cA8ZXB85LRYiuhBoMwi-3" value="&lt;font style=&quot;font-size: 24px;&quot; face=&quot;Times New Roman&quot;&gt;&lt;b&gt;Parquet File&lt;/b&gt;&lt;/font&gt;" style="text;html=1;strokeColor=none;fillColor=none;align=center;verticalAlign=middle;whiteSpace=wrap;rounded=0;" vertex="1" parent="1">
          <mxGeometry x="197.5" y="622" width="131" height="30" as="geometry" />
        </mxCell>
        <mxCell id="7cA8ZXB85LRYiuhBoMwi-4" value="" style="rounded=0;whiteSpace=wrap;html=1;fillColor=#f5f5f5;fontColor=#333333;strokeColor=#666666;fontStyle=0" vertex="1" parent="1">
          <mxGeometry x="163" y="671" width="200" height="60" as="geometry" />
        </mxCell>
        <mxCell id="7cA8ZXB85LRYiuhBoMwi-5" value="" style="rounded=0;whiteSpace=wrap;html=1;fillColor=#f5f5f5;fontColor=#333333;strokeColor=#666666;fontStyle=0" vertex="1" parent="1">
          <mxGeometry x="163" y="742" width="200" height="60" as="geometry" />
        </mxCell>
        <mxCell id="7cA8ZXB85LRYiuhBoMwi-6" value="&lt;font style=&quot;font-size: 24px;&quot;&gt;&lt;b&gt;...&lt;/b&gt;&lt;/font&gt;" style="text;html=1;strokeColor=none;fillColor=none;align=center;verticalAlign=middle;whiteSpace=wrap;rounded=0;" vertex="1" parent="1">
          <mxGeometry x="233" y="800" width="60" height="30" as="geometry" />
        </mxCell>
        <mxCell id="7cA8ZXB85LRYiuhBoMwi-7" value="" style="rounded=0;whiteSpace=wrap;html=1;fillColor=#f5f5f5;fontColor=#333333;strokeColor=#666666;" vertex="1" parent="1">
          <mxGeometry x="434.5" y="600" width="230" height="210" as="geometry" />
        </mxCell>
        <mxCell id="7cA8ZXB85LRYiuhBoMwi-8" value="" style="endArrow=none;dashed=1;html=1;rounded=0;exitX=1;exitY=0;exitDx=0;exitDy=0;entryX=0;entryY=0;entryDx=0;entryDy=0;" edge="1" parent="1" source="7cA8ZXB85LRYiuhBoMwi-4" target="7cA8ZXB85LRYiuhBoMwi-7">
          <mxGeometry width="50" height="50" relative="1" as="geometry">
            <mxPoint x="838" y="918" as="sourcePoint" />
            <mxPoint x="888" y="868" as="targetPoint" />
          </mxGeometry>
        </mxCell>
        <mxCell id="7cA8ZXB85LRYiuhBoMwi-9" value="" style="endArrow=none;dashed=1;html=1;rounded=0;exitX=1;exitY=1;exitDx=0;exitDy=0;entryX=0;entryY=1;entryDx=0;entryDy=0;" edge="1" parent="1" source="7cA8ZXB85LRYiuhBoMwi-4" target="7cA8ZXB85LRYiuhBoMwi-7">
          <mxGeometry width="50" height="50" relative="1" as="geometry">
            <mxPoint x="567" y="912" as="sourcePoint" />
            <mxPoint x="617" y="862" as="targetPoint" />
          </mxGeometry>
        </mxCell>
        <mxCell id="7cA8ZXB85LRYiuhBoMwi-10" value="&lt;font face=&quot;Times New Roman&quot; style=&quot;font-size: 24px;&quot;&gt;&lt;b&gt;Row Group&lt;/b&gt;&lt;/font&gt;" style="text;html=1;strokeColor=none;fillColor=none;align=center;verticalAlign=middle;whiteSpace=wrap;rounded=0;" vertex="1" parent="1">
          <mxGeometry x="488" y="604" width="123" height="30" as="geometry" />
        </mxCell>
        <mxCell id="7cA8ZXB85LRYiuhBoMwi-12" value="" style="rounded=0;whiteSpace=wrap;html=1;fillColor=#FFB703;strokeColor=none;fontStyle=0" vertex="1" parent="1">
          <mxGeometry x="163" y="834" width="200" height="35" as="geometry" />
        </mxCell>
        <mxCell id="7cA8ZXB85LRYiuhBoMwi-14" value="" style="rounded=0;whiteSpace=wrap;html=1;fillColor=#90C9E6;strokeColor=#82b366;" vertex="1" parent="1">
          <mxGeometry x="449.5" y="639" width="200" height="60" as="geometry" />
        </mxCell>
        <mxCell id="7cA8ZXB85LRYiuhBoMwi-15" value="&lt;font style=&quot;font-size: 24px;&quot; face=&quot;Times New Roman&quot;&gt;Metadata&lt;/font&gt;" style="rounded=0;whiteSpace=wrap;html=1;fillColor=#FFB703;strokeColor=none;fontStyle=0" vertex="1" parent="1">
          <mxGeometry x="434.5" y="834" width="230" height="50" as="geometry" />
        </mxCell>
        <mxCell id="7cA8ZXB85LRYiuhBoMwi-16" value="" style="endArrow=none;dashed=1;html=1;rounded=0;exitX=1;exitY=0.25;exitDx=0;exitDy=0;entryX=0;entryY=0;entryDx=0;entryDy=0;" edge="1" parent="1" source="7cA8ZXB85LRYiuhBoMwi-12" target="7cA8ZXB85LRYiuhBoMwi-15">
          <mxGeometry width="50" height="50" relative="1" as="geometry">
            <mxPoint x="471" y="687" as="sourcePoint" />
            <mxPoint x="572" y="633" as="targetPoint" />
          </mxGeometry>
        </mxCell>
        <mxCell id="7cA8ZXB85LRYiuhBoMwi-17" value="" style="endArrow=none;dashed=1;html=1;rounded=0;exitX=1;exitY=1;exitDx=0;exitDy=0;entryX=0;entryY=1;entryDx=0;entryDy=0;" edge="1" parent="1" source="7cA8ZXB85LRYiuhBoMwi-12" target="7cA8ZXB85LRYiuhBoMwi-15">
          <mxGeometry width="50" height="50" relative="1" as="geometry">
            <mxPoint x="471" y="747" as="sourcePoint" />
            <mxPoint x="572" y="833" as="targetPoint" />
          </mxGeometry>
        </mxCell>
        <mxCell id="7cA8ZXB85LRYiuhBoMwi-18" value="" style="rounded=0;whiteSpace=wrap;html=1;fillColor=#90C9E6;strokeColor=#82b366;" vertex="1" parent="1">
          <mxGeometry x="449.5" y="711" width="200" height="60" as="geometry" />
        </mxCell>
        <mxCell id="7cA8ZXB85LRYiuhBoMwi-19" value="&lt;font style=&quot;font-size: 24px;&quot;&gt;&lt;b&gt;...&lt;/b&gt;&lt;/font&gt;" style="text;html=1;strokeColor=none;fillColor=none;align=center;verticalAlign=middle;whiteSpace=wrap;rounded=0;" vertex="1" parent="1">
          <mxGeometry x="519.5" y="772" width="60" height="30" as="geometry" />
        </mxCell>
        <mxCell id="7cA8ZXB85LRYiuhBoMwi-20" value="" style="rounded=0;whiteSpace=wrap;html=1;fillColor=#90C9E6;strokeColor=#82b366;" vertex="1" parent="1">
          <mxGeometry x="735" y="604" width="250" height="135" as="geometry" />
        </mxCell>
        <mxCell id="7cA8ZXB85LRYiuhBoMwi-21" value="&lt;font face=&quot;Times New Roman&quot;&gt;&lt;span style=&quot;font-size: 24px;&quot;&gt;&lt;b&gt;Column Chunk&lt;/b&gt;&lt;/span&gt;&lt;/font&gt;" style="text;html=1;strokeColor=none;fillColor=none;align=center;verticalAlign=middle;whiteSpace=wrap;rounded=0;" vertex="1" parent="1">
          <mxGeometry x="776.75" y="607" width="166.5" height="30" as="geometry" />
        </mxCell>
        <mxCell id="7cA8ZXB85LRYiuhBoMwi-25" value="" style="endArrow=none;dashed=1;html=1;rounded=0;exitX=1;exitY=0;exitDx=0;exitDy=0;entryX=0;entryY=0;entryDx=0;entryDy=0;" edge="1" parent="1" source="7cA8ZXB85LRYiuhBoMwi-14" target="7cA8ZXB85LRYiuhBoMwi-20">
          <mxGeometry width="50" height="50" relative="1" as="geometry">
            <mxPoint x="373" y="681" as="sourcePoint" />
            <mxPoint x="445" y="610" as="targetPoint" />
          </mxGeometry>
        </mxCell>
        <mxCell id="7cA8ZXB85LRYiuhBoMwi-26" value="" style="endArrow=none;dashed=1;html=1;rounded=0;exitX=1;exitY=1;exitDx=0;exitDy=0;entryX=0;entryY=1;entryDx=0;entryDy=0;" edge="1" parent="1" source="7cA8ZXB85LRYiuhBoMwi-14" target="7cA8ZXB85LRYiuhBoMwi-20">
          <mxGeometry width="50" height="50" relative="1" as="geometry">
            <mxPoint x="373" y="741" as="sourcePoint" />
            <mxPoint x="445" y="820" as="targetPoint" />
          </mxGeometry>
        </mxCell>
        <mxCell id="7cA8ZXB85LRYiuhBoMwi-28" value="&lt;font style=&quot;font-size: 18px;&quot; face=&quot;Times New Roman&quot;&gt;&lt;b style=&quot;&quot;&gt;2023-01-01&lt;/b&gt;&lt;/font&gt;" style="rounded=0;whiteSpace=wrap;html=1;fillColor=#FFF2CC;strokeColor=none;" vertex="1" parent="1">
          <mxGeometry x="755" y="642" width="100" height="35" as="geometry" />
        </mxCell>
        <mxCell id="7cA8ZXB85LRYiuhBoMwi-29" value="&lt;font style=&quot;font-size: 18px;&quot; face=&quot;Times New Roman&quot;&gt;&lt;b style=&quot;&quot;&gt;2023-01-02&lt;/b&gt;&lt;/font&gt;" style="rounded=0;whiteSpace=wrap;html=1;fillColor=#FFF2CC;strokeColor=none;" vertex="1" parent="1">
          <mxGeometry x="870" y="642" width="100" height="35" as="geometry" />
        </mxCell>
        <mxCell id="7cA8ZXB85LRYiuhBoMwi-30" value="&lt;font style=&quot;font-size: 18px;&quot; face=&quot;Times New Roman&quot;&gt;&lt;b style=&quot;&quot;&gt;2023-01-03&lt;/b&gt;&lt;/font&gt;" style="rounded=0;whiteSpace=wrap;html=1;fillColor=#FFF2CC;strokeColor=none;" vertex="1" parent="1">
          <mxGeometry x="755" y="683.5" width="100" height="35" as="geometry" />
        </mxCell>
        <mxCell id="7cA8ZXB85LRYiuhBoMwi-31" value="&lt;font style=&quot;font-size: 18px;&quot; face=&quot;Times New Roman&quot;&gt;&lt;b style=&quot;&quot;&gt;2023-01-04&lt;/b&gt;&lt;/font&gt;" style="rounded=0;whiteSpace=wrap;html=1;fillColor=#FFF2CC;strokeColor=none;" vertex="1" parent="1">
          <mxGeometry x="870" y="683.5" width="100" height="35" as="geometry" />
        </mxCell>
        <mxCell id="7cA8ZXB85LRYiuhBoMwi-32" value="&lt;font style=&quot;font-size: 24px;&quot;&gt;&lt;b&gt;...&lt;/b&gt;&lt;/font&gt;" style="text;html=1;strokeColor=none;fillColor=none;align=center;verticalAlign=middle;whiteSpace=wrap;rounded=0;" vertex="1" parent="1">
          <mxGeometry x="773.75" y="709" width="60" height="30" as="geometry" />
        </mxCell>
        <mxCell id="7cA8ZXB85LRYiuhBoMwi-33" value="&lt;font style=&quot;font-size: 24px;&quot;&gt;&lt;b&gt;...&lt;/b&gt;&lt;/font&gt;" style="text;html=1;strokeColor=none;fillColor=none;align=center;verticalAlign=middle;whiteSpace=wrap;rounded=0;" vertex="1" parent="1">
          <mxGeometry x="888" y="709" width="60" height="30" as="geometry" />
        </mxCell>
        <mxCell id="7cA8ZXB85LRYiuhBoMwi-34" value="" style="rounded=0;whiteSpace=wrap;html=1;fillColor=#90C9E6;strokeColor=#82b366;" vertex="1" parent="1">
          <mxGeometry x="735" y="762" width="250" height="135" as="geometry" />
        </mxCell>
        <mxCell id="7cA8ZXB85LRYiuhBoMwi-35" value="&lt;font face=&quot;Times New Roman&quot;&gt;&lt;span style=&quot;font-size: 24px;&quot;&gt;&lt;b&gt;Column Chunk&lt;/b&gt;&lt;/span&gt;&lt;/font&gt;" style="text;html=1;strokeColor=none;fillColor=none;align=center;verticalAlign=middle;whiteSpace=wrap;rounded=0;" vertex="1" parent="1">
          <mxGeometry x="776.75" y="764" width="166.5" height="30" as="geometry" />
        </mxCell>
        <mxCell id="7cA8ZXB85LRYiuhBoMwi-36" value="&lt;font style=&quot;font-size: 18px;&quot; face=&quot;Times New Roman&quot;&gt;&lt;b style=&quot;&quot;&gt;300&lt;br&gt;&lt;/b&gt;&lt;/font&gt;" style="rounded=0;whiteSpace=wrap;html=1;fillColor=#E6D0DE;strokeColor=none;" vertex="1" parent="1">
          <mxGeometry x="755" y="795" width="100" height="35" as="geometry" />
        </mxCell>
        <mxCell id="7cA8ZXB85LRYiuhBoMwi-37" value="&lt;font style=&quot;font-size: 18px;&quot; face=&quot;Times New Roman&quot;&gt;&lt;b style=&quot;&quot;&gt;100&lt;br&gt;&lt;/b&gt;&lt;/font&gt;" style="rounded=0;whiteSpace=wrap;html=1;fillColor=#E6D0DE;strokeColor=none;" vertex="1" parent="1">
          <mxGeometry x="870" y="796" width="100" height="35" as="geometry" />
        </mxCell>
        <mxCell id="7cA8ZXB85LRYiuhBoMwi-38" value="&lt;font style=&quot;font-size: 18px;&quot; face=&quot;Times New Roman&quot;&gt;&lt;b style=&quot;&quot;&gt;200&lt;br&gt;&lt;/b&gt;&lt;/font&gt;" style="rounded=0;whiteSpace=wrap;html=1;fillColor=#E6D0DE;strokeColor=none;" vertex="1" parent="1">
          <mxGeometry x="755" y="837" width="100" height="35" as="geometry" />
        </mxCell>
        <mxCell id="7cA8ZXB85LRYiuhBoMwi-39" value="&lt;font style=&quot;font-size: 18px;&quot; face=&quot;Times New Roman&quot;&gt;&lt;b style=&quot;&quot;&gt;500&lt;br&gt;&lt;/b&gt;&lt;/font&gt;" style="rounded=0;whiteSpace=wrap;html=1;fillColor=#E6D0DE;strokeColor=none;" vertex="1" parent="1">
          <mxGeometry x="868" y="837" width="100" height="35" as="geometry" />
        </mxCell>
        <mxCell id="7cA8ZXB85LRYiuhBoMwi-40" value="&lt;font style=&quot;font-size: 24px;&quot;&gt;&lt;b&gt;...&lt;/b&gt;&lt;/font&gt;" style="text;html=1;strokeColor=none;fillColor=none;align=center;verticalAlign=middle;whiteSpace=wrap;rounded=0;" vertex="1" parent="1">
          <mxGeometry x="775" y="863" width="60" height="30" as="geometry" />
        </mxCell>
        <mxCell id="7cA8ZXB85LRYiuhBoMwi-41" value="&lt;font style=&quot;font-size: 24px;&quot;&gt;&lt;b&gt;...&lt;/b&gt;&lt;/font&gt;" style="text;html=1;strokeColor=none;fillColor=none;align=center;verticalAlign=middle;whiteSpace=wrap;rounded=0;" vertex="1" parent="1">
          <mxGeometry x="888" y="863" width="60" height="30" as="geometry" />
        </mxCell>
      </root>
    </mxGraphModel>
  </diagram>
</mxfile>
